<?xml version="1.0" encoding="UTF-8"?>
<!DOCTYPE svg PUBLIC "-//W3C//DTD SVG 1.1//EN" "http://www.w3.org/Graphics/SVG/1.1/DTD/svg11.dtd">
<!-- Creator: CorelDRAW -->
<svg xmlns="http://www.w3.org/2000/svg" xml:space="preserve" width="8.5in" height="11in" version="1.1" style="shape-rendering:geometricPrecision; text-rendering:geometricPrecision; image-rendering:optimizeQuality; fill-rule:evenodd; clip-rule:evenodd"
viewBox="0 0 8500 11000"
 xmlns:xlink="http://www.w3.org/1999/xlink"
 xmlns:xodm="http://www.corel.com/coreldraw/odm/2003">
 <defs>
  <style type="text/css">
   <![CDATA[
    .str0 {stroke:#333300;stroke-width:113.54;stroke-miterlimit:2.61313}
    .fil3 {fill:none}
    .fil2 {fill:black;fill-rule:nonzero}
    .fil0 {fill:#333300;fill-rule:nonzero}
    .fil1 {fill:#CC9933;fill-rule:nonzero}
   ]]>
  </style>
 </defs>
 <g id="Layer_x0020_1">
  <metadata id="CorelCorpID_0Corel-Layer"/>
  <g id="_1660839312496">
   <g>
    <path class="fil0" d="M120.35 2382.95c-15.01,75.04 -36.9,194.48 -65.66,358.31l-9.38 55.34c-25.63,141.95 -42.52,242.64 -50.65,302.04l-232.63 0c18.14,-89.42 36.59,-185.09 55.34,-287.03l-175.41 0c-18.76,105.07 -35.33,200.74 -49.71,287.03l-231.68 0c33.14,-166.96 55.65,-286.09 67.53,-357.38 13.14,-70.03 30.02,-171.02 50.66,-302.96l8.44 -55.34 231.69 0c-17.52,93.79 -34.4,186.96 -50.66,279.52l175.41 0 8.44 -50.66c15.01,-86.92 27.2,-163.2 36.59,-228.86l231.68 0zm645.35 0c-1.26,43.14 -1.87,111.62 -1.87,205.42 0,96.3 0.31,168.84 0.94,217.61l0.94 221.37 0 71.28 -242.01 0c2.51,-58.78 4.07,-100.06 4.69,-123.81l-95.68 0 -90.98 0 -18.76 44.09c-19.38,45.65 -30.95,72.22 -34.71,79.73l-237.31 0c29.39,-67.54 59.71,-134.76 90.98,-201.67 85.67,-188.23 160.7,-359.57 225.12,-514.02l398.65 0zm-233.57 453.05c1.87,-116.94 5.63,-224.8 11.26,-323.61l-9.38 0 -100.37 240.14 -33.76 83.48 132.25 0zm597.51 275.78c-88.18,0 -152.12,-16.26 -191.82,-48.78 -39.7,-32.52 -59.56,-83.79 -59.56,-153.83 0,-28.14 3.44,-61.9 10.32,-101.3l38.45 -210.11c13.14,-75.67 24.08,-147.27 32.83,-214.8l231.68 0c-8.75,47.52 -19.53,106.62 -32.36,177.28 -12.82,70.67 -23.6,131.32 -32.36,181.98 -8.76,46.89 -13.13,85.97 -13.13,117.24 0,58.16 18.76,87.24 56.28,87.24 11.26,0 24.08,-1.41 38.46,-4.23 14.38,-2.81 24.7,-6.41 30.95,-10.78 6.88,-29.4 11.26,-47.54 13.14,-54.41 8.13,-35.65 16.57,-78.49 25.33,-128.51 16.25,-87.55 36.89,-209.48 61.9,-365.82l230.74 0c-13.12,67.53 -29.39,156.02 -48.76,265.45l-33.77 196.04c-11.88,67.54 -33.77,121 -65.66,160.4 -31.9,39.39 -71.91,67.07 -120.07,83.01 -48.15,15.96 -105.68,23.93 -172.59,23.93zm741.03 -1.88c-101.94,0 -177.44,-15.64 -226.53,-46.9 -49.09,-31.27 -73.64,-85.05 -73.64,-161.33 0,-12.51 0.32,-22.21 0.95,-29.08l252.31 -19.7 -0.93 16.88c0,56.91 25.32,85.36 75.97,85.36 11.88,0 24.39,-0.78 37.53,-2.35 13.13,-1.56 22.2,-3.91 27.2,-7.04 11.88,-24.39 19.39,-47.52 22.52,-69.41 1.87,-9.37 2.81,-17.51 2.81,-24.38 0,-17.52 -5.93,-30.49 -17.81,-38.93 -11.88,-8.44 -33.14,-13.29 -63.79,-14.54 -100.06,-2.5 -171.03,-17.35 -212.93,-44.56 -41.89,-27.2 -62.84,-66.12 -62.84,-116.77 0,-15.02 1.24,-29.71 3.74,-44.09 13.14,-72.54 51.43,-127.88 114.91,-166.03 63.47,-38.15 141.17,-57.22 233.09,-57.22 94.43,0 164.15,18.6 209.18,55.81 45.02,37.21 67.54,94.89 67.54,173.06 0,8.76 -0.63,23.13 -1.88,43.14l-231.68 15.96 0.94 -18.76c1.25,-15.01 1.87,-25.33 1.87,-30.95 0,-25.64 -5.63,-44.56 -16.88,-56.75 -11.26,-12.2 -33.15,-18.29 -65.66,-18.29 -8.75,0 -19.39,0.62 -31.9,1.87 -12.5,1.25 -21.26,2.82 -26.26,4.69 -19.38,41.27 -29.08,75.67 -29.08,103.19 0,19.38 5.8,33.93 17.35,43.61 11.57,9.69 31.74,15.47 60.51,17.35 72.54,2.5 128.97,8.91 169.3,19.22 40.33,10.31 68.78,24.86 85.36,43.61 16.57,18.76 24.86,43.15 24.86,73.17 0,12.51 -1.56,28.77 -4.69,48.78 -8.13,46.27 -28.3,86.14 -60.5,119.59 -32.2,33.46 -72.69,58.79 -121.46,75.99 -48.78,17.19 -101.94,25.79 -159.46,25.79z"/>
    <path class="fil1" d="M2508.52 3111.78c-71.91,0 -125.54,-20.48 -160.87,-61.44 -35.33,-40.96 -53,-101.15 -53,-180.57 0,-40.02 4.06,-83.17 12.19,-129.44 22.52,-128.19 64.26,-221.83 125.23,-280.93 60.96,-59.08 147.43,-88.64 259.35,-88.64 67.54,0 121.32,7.35 161.34,22.04 40.02,14.7 68.94,37.68 86.77,68.94 17.81,31.27 26.72,72.86 26.72,124.76 0,27.52 -2.5,60.66 -7.5,99.43l-233.56 23.45c3.75,-24.39 5.63,-46.59 5.63,-66.59 0,-70.67 -24.39,-106 -73.16,-106 -26.27,0 -48.78,3.76 -67.54,11.26 -13.14,29.39 -23.76,57.06 -31.89,83.01 -8.14,25.95 -15.95,59.25 -23.45,99.89 -5.63,30.64 -8.44,60.03 -8.44,88.17 0,39.4 6.41,70.82 19.24,94.26 12.81,23.46 32.36,35.18 58.62,35.18 21.89,0 43.77,-3.13 65.66,-9.38 11.25,-4.38 23.76,-12.19 37.53,-23.45 10,-7.5 16.25,-11.88 18.75,-13.13 1.89,-11.26 2.82,-21.58 2.82,-30.95 0,-17.52 -3.91,-30.49 -11.72,-38.94 -7.82,-8.43 -20.48,-12.66 -37.99,-12.66l-59.09 0 5.63 -26.26 339.56 0 -7.5 42.2c-15.01,84.42 -30.02,171.97 -45.02,262.64l-223.24 0 32.83 -159.46 -14.07 0c-16.26,57.54 -41.59,100.69 -75.98,129.44 -34.4,28.76 -75.67,43.15 -123.81,43.15zm787.92 0c-95.67,0 -165.41,-19.24 -209.18,-57.69 -43.78,-38.46 -65.66,-99.59 -65.66,-183.39 0,-36.27 4.37,-79.73 13.13,-130.38 23.15,-128.81 65.2,-222.62 126.16,-281.39 60.97,-58.79 147.11,-88.18 258.42,-88.18 95.06,0 164.78,19.85 209.18,59.57 44.41,39.7 66.6,102.08 66.6,187.13 0,39.39 -4.07,81.6 -12.2,126.63 -22.51,126.94 -65.03,219.96 -127.56,279.05 -62.54,59.09 -148.83,88.65 -258.89,88.65zm33.76 -163.22c26.9,0 47.84,-3.13 62.85,-9.38 28.77,-72.54 47.52,-135.7 56.28,-189.48 6.26,-36.27 9.38,-67.22 9.38,-92.87 0,-37.51 -5.93,-66.9 -17.81,-88.17 -11.88,-21.26 -30.33,-31.9 -55.34,-31.9 -23.15,0 -45.97,3.76 -68.48,11.26 -11.88,31.26 -21.89,60.65 -30.02,88.17 -8.13,27.52 -15.33,59.72 -21.57,96.62 -5.64,31.89 -8.44,62.21 -8.44,90.98 0,38.14 5.78,68.48 17.35,90.98 11.56,22.52 30.17,33.77 55.8,33.77zm376.15 150.08c18.76,-91.3 41.27,-210.43 67.53,-357.38 16.26,-92.55 35.96,-211.98 59.1,-358.31l235.44 0c-18.14,93.17 -38.45,203.23 -60.97,330.17 -15.64,88.8 -27.2,157.9 -34.71,207.3 118.19,0 201.05,-0.63 248.57,-1.87l-46.9 180.09 -468.06 0zm570.3 -0.93c28.76,-143.21 51.28,-262.02 67.53,-356.45 21.26,-118.81 40.65,-238.24 58.16,-358.31l297.35 0c92.55,0 162.74,18.92 210.57,56.74 47.84,37.83 71.76,100.84 71.76,189.01 0,36.27 -3.44,73.48 -10.32,111.62 -22.5,127.57 -64.25,219.03 -125.22,274.37 -60.98,55.34 -142.73,83.01 -245.29,83.01l-324.55 0zm324.55 -154.77c25.02,0 45.81,-5.79 62.38,-17.35 16.57,-11.57 30.95,-31.73 43.15,-60.5 12.19,-28.76 22.98,-69.41 32.35,-121.94 7.51,-42.52 11.26,-76.92 11.26,-103.18 0,-37.52 -6.73,-63.79 -20.17,-78.8 -13.44,-15.01 -34.55,-22.51 -63.31,-22.51l-60.97 0 -70.35 404.28 65.66 0z"/>
    <path class="fil2" d="M5228.72 3098.64c18.76,-91.3 41.27,-210.43 67.53,-357.38 16.26,-92.55 35.96,-211.98 59.09,-358.31l235.44 0c-18.14,93.17 -38.45,203.23 -60.97,330.17 -15.63,88.8 -27.2,157.9 -34.71,207.3 118.19,0 201.05,-0.63 248.57,-1.87l-46.9 180.09 -468.06 0zm604.07 0c25.63,-127.57 47.83,-243.56 66.59,-348l3.76 -24.39c15.01,-86.29 24.39,-142.89 28.14,-169.78 -16.89,-0.62 -48.78,-0.31 -95.69,0.94 -37.51,1.24 -63.78,1.87 -78.78,1.87l30.95 -176.34 578.75 0 -30.95 176.34c-36.27,0 -84.42,-0.63 -144.45,-1.87 -7.51,-0.63 -17.51,-0.94 -30.02,-0.94l-4.69 25.32 -34.71 189.48c-20.63,118.82 -38.77,227.94 -54.41,327.37l-234.5 0zm463.37 -0.93c28.76,-143.21 51.28,-262.02 67.53,-356.45 21.26,-118.81 40.65,-238.24 58.16,-358.31l297.35 0c92.55,0 162.74,18.92 210.57,56.74 47.84,37.83 71.76,100.84 71.76,189.01 0,36.27 -3.44,73.48 -10.32,111.62 -22.5,127.57 -64.25,219.03 -125.22,274.37 -60.98,55.34 -142.73,83.01 -245.29,83.01l-324.55 0zm324.55 -154.77c25.02,0 45.81,-5.79 62.38,-17.35 16.57,-11.57 30.95,-31.73 43.15,-60.5 12.19,-28.76 22.98,-69.41 32.35,-121.94 7.51,-42.52 11.26,-76.92 11.26,-103.18 0,-37.52 -6.73,-63.79 -20.17,-78.8 -13.44,-15.01 -34.55,-22.51 -63.31,-22.51l-60.97 0 -70.35 404.28 65.66 0zm488.7 171.65c-37.52,0 -65.04,-5.32 -82.55,-15.94 -17.51,-10.63 -26.26,-26.89 -26.26,-48.78 0,-4.37 0.63,-10.94 1.87,-19.7 5.01,-28.76 18.3,-49.71 39.87,-62.84 21.57,-13.14 53.93,-19.7 97.08,-19.7 38.77,0 66.91,5.15 84.42,15.47 17.51,10.32 26.26,26.43 26.26,48.31 0,3.74 -0.63,10 -1.87,18.75 -5.01,28.77 -18.45,50.04 -40.33,63.79 -21.89,13.75 -54.72,20.63 -98.49,20.63z"/>
   </g>
   <polygon class="fil3 str0" points="-719.04,2139.34 7617.61,2139.34 7407,3345.06 -929.65,3345.06 "/>
  </g>
 </g>
</svg>
